<svg width="1160" height="657" fill="none" xmlns="http://www.w3.org/2000/svg"><g clip-path="url(#a)"><path d="M999.215 10.463H182.349v523.158h816.866V10.463Z" fill="#E6E6E6"/><path d="M925.857 76.08h-670.15c-27.614 0-50 22.386-50 50v326.591c0 27.614 22.386 50 50 50h670.15c27.615 0 50-22.386 50-50V126.08c0-27.614-22.385-50-50-50Z" fill="#828282"/><path d="M998.867 10H182v34.703h816.867V10Z" fill="#525252"/><path d="M207.788 34.174a6.432 6.432 0 1 0-6.432-6.432 6.432 6.432 0 0 0 6.432 6.432Z" fill="red"/><path d="M232.204 34.174a6.432 6.432 0 1 0 0-12.864 6.432 6.432 0 0 0 0 12.864Z" fill="#C0F"/><path d="M256.618 34.174a6.432 6.432 0 1 0 0-12.864 6.432 6.432 0 0 0 0 12.864Z" fill="#FFE900"/><path d="M451.095 111.167h-150.63v163.42h150.63v-163.42Z" fill="#00B0FF"/><path d="M666.095 111.167h-150.63v163.42h150.63v-163.42Z" fill="#FFB9B9"/><path d="M881.095 111.167h-150.63v163.42h150.63v-163.42Z" fill="#515151"/><path d="M451.095 304.167h-150.63v163.42h150.63v-163.42Z" fill="#8FFF00"/><path d="M666.095 304.167h-150.63v163.42h150.63v-163.42Z" fill="#FF8A00"/><path d="M881.095 304.167h-150.63v163.42h150.63v-163.42Z" fill="#F9F9F9"/><path d="M358.975 209.982c14.062 0 25.462-11.4 25.462-25.462 0-14.063-11.4-25.463-25.462-25.463s-25.462 11.4-25.462 25.463c0 14.062 11.4 25.462 25.462 25.462Z" fill="#FFB9B9"/><path d="M349.028 204.014s3.183 15.119 3.183 16.71c0 1.591 15.118 8.753 15.118 8.753l13.527-2.387 4.774-14.323s-7.957-11.935-7.957-16.71l-28.645 7.957Z" fill="#FFB9B9"/><path d="M336.894 164.006s8.084-17.516 23.579-13.474c15.494 4.042 24.252 10.105 24.926 16.168.674 6.063-.337 15.158-.337 15.158s-1.684-12.463-12.463-9.768c-10.779 2.694-27.621.673-27.621.673l-2.695 24.253s-3.031-4.379-6.4-1.684c-3.368 2.695-9.768-25.937 1.011-31.326Z" fill="#2F2E41"/><path d="m439.736 268.467-6.36-28.65c-3.19-9.55-11.14-17.5-11.14-17.5l-39.24-13.8h-.01a16.485 16.485 0 0 1-3.341 9.59 16.488 16.488 0 0 1-8.329 5.81c-11.94 3.97-20.16-9.41-20.16-9.41l-33.17 25.31s-10.34 8.76-9.54 25.47l-1.1 9.3h135.45l-3.06-6.12Z" fill="#FFE900"/><path d="M573.4 222.671c19.087 0 34.56-16.425 34.56-36.687 0-20.262-15.473-36.687-34.56-36.687-19.087 0-34.56 16.425-34.56 36.687 0 20.262 15.473 36.687 34.56 36.687Z" fill="#2F2E41"/><path d="M604.064 241.501c10.041 0 18.181-8.139 18.181-18.181 0-10.041-8.14-18.181-18.181-18.181s-18.181 8.14-18.181 18.181c0 10.042 8.14 18.181 18.181 18.181Z" fill="#2F2E41"/><path d="m591.402 198.971 9.74 25.323-24.674 10.39-2.167-4.911-7.574-17.166 24.675-13.636Z" fill="#9F616A"/><path d="M571.922 215.528c12.014 0 21.753-9.739 21.753-21.752 0-12.014-9.739-21.753-21.753-21.753-12.013 0-21.752 9.739-21.752 21.753 0 12.013 9.739 21.752 21.752 21.752Z" fill="#9F616A"/><path d="M554.142 191.39c13.672-9.123 17.76-11.304 33.431-7.78l.94-22.863-40.497 8.496 6.126 22.147Z" fill="#2F2E41"/><path d="m642.045 243.117-.6.07a.319.319 0 0 0-.05-.06c-2.38-2.38-13.74-6.71-22.21-9.71h-.01c-5.38-1.91-9.59-3.28-9.59-3.28l-10.24-10.53c-2.58 2.9-8.03 5.14-13.21 6.72a103.786 103.786 0 0 1-12.08 2.88h-.01l-2.12 6.77s-24.03 18.19-25.97 20.13h-.01v.02a1.057 1.057 0 0 0-.18.76v.05a88.19 88.19 0 0 0-1.86 17.65h104.64v-6.14c0-8.44-6.5-25.33-6.5-25.33Z" fill="#FE9A24"/><path d="M834.465 274.587h-51.74l-2.85-28.11-.17-1.71-.35-3.39-1.43-14.17-1.79 15.22-3.78 32.16h-9.4l.35-10.01.35-10.15.15-4.09 1.93-55.64a39.729 39.729 0 0 1 7.93-24.49 30.942 30.942 0 0 1 24.99-12.09 31.838 31.838 0 0 1 25.42 12.53 40.255 40.255 0 0 1 8.31 24.86l.89 33.68 1.19 45.4Z" fill="#2F2E41"/><path d="M798.656 214.608c12.568 0 22.758-10.189 22.758-22.758 0-12.569-10.19-22.758-22.758-22.758-12.569 0-22.759 10.189-22.759 22.758 0 12.569 10.19 22.758 22.759 22.758Z" fill="#FBBEBE"/><path d="M787.276 208.105s6.503 21.946 0 28.448c-6.502 6.502-8.128 8.941-8.128 8.941l18.695 25.196 32.511-39.827s-22.758-6.502-17.069-24.383l-26.009 1.625ZM857.485 274.587h-19.2l-.32-3.29-.29-3.04 8.84-1.11 10.66-1.33.12 3.41.19 5.36Z" fill="#FBBEBE"/><path d="M858.802 269.064s-3.251-20.319-5.69-28.447c-2.438-8.128-4.876-8.128-4.876-8.128h-.001v-.002c-2.87-2.87-9.77-3.38-14.96-3.3-3.64.04-6.44.36-6.44.36l-28.99 30.58-14.6-19.41v-.01a21.206 21.206 0 0 0-3.89.67c-1.095.279-2.171.63-3.22 1.05a44.206 44.206 0 0 0-12.33 7.91h-.01c-2.1 1.89-3.34 3.28-3.34 3.28a95.26 95.26 0 0 0-7.22 20.97h92.9l.21-4.18v-.008l12.457-1.335Z" fill="#FBBC05"/><path d="M779.556 188.192c14.698-7.924 20.736-7.589 39.013 0l4.877-11.881a8.45 8.45 0 0 0-8.438-8.439h-32.704a8.45 8.45 0 0 0-8.438 8.439l5.69 11.881ZM373.788 343.721a6.001 6.001 0 0 0-3.477.777 9.073 9.073 0 0 0-2.352 3.104 37.111 37.111 0 0 1-10.116 11.427c-3.005 2.202-6.827 4.948-6.313 9.008a12.199 12.199 0 0 0 1.465 3.802c2.773 5.598 10.34 9.924 9.596 16.311 2.755-4.612-.93-6.893 1.825-11.505 1.312-2.196 3.591-4.676 5.572-3.296.663.462 1.099 1.29 1.789 1.695 1.648.967 3.401-.882 4.86-2.191 5.03-4.515 12.182-3.332 18.442-1.925 2.954.664 6.2 1.535 7.947 4.359 2.297 3.714-2.182 7.724-3.314 11.922a2.292 2.292 0 0 0 1.373 2.699c.344.136.715.187 1.082.148 1.878-.185 4.103-.337 4.214-1.161 2.363.084 5.258-.184 6.271-2.644.309-.974.473-1.988.485-3.009.372-4.133 2.126-7.904 3.288-11.837 1.162-3.934 1.667-8.544-.294-12.031a13.9 13.9 0 0 0-2.569-3.123c-11.129-10.77-25.76-12.546-39.774-12.53Z" fill="#2F2E41"/><path d="M365.011 396.217s2.42 20.169-6.454 21.783c-8.874 1.613 8.068 29.043 8.068 29.043l40.338 4.841-9.682-32.27s-6.454-2.421-2.42-18.556-29.85-4.841-29.85-4.841Z" fill="#9F616A"/><path d="M383.164 409.529c13.367 0 24.203-10.836 24.203-24.203 0-13.367-10.836-24.203-24.203-24.203-13.367 0-24.203 10.836-24.203 24.203 0 13.367 10.836 24.203 24.203 24.203Z" fill="#9F616A"/><path d="M341.505 467.587c4.28-16.83 10.19-39.5 10.19-39.5s2.3.47 5.92 1a140.116 140.116 0 0 0 15.96 1.45c6.84.19 14.04-.26 19.61-2.19a18.372 18.372 0 0 0 5.79-3.09 11.157 11.157 0 0 0 1.94-2.01c9.68-12.91 13.71 36.3 13.71 36.3l.75 8.04h-73.87Z" fill="#fff"/><path d="M418.835 519.587c-.32 0-.64.01-.96.03l.46-.86c.16.27.32.55.5.83Z" fill="#FFB8B8"/><path d="M374.968 350.054a5.495 5.495 0 0 0-2.831.549 6.597 6.597 0 0 0-1.914 2.194 27.867 27.867 0 0 1-8.235 8.076c-2.447 1.557-5.558 3.497-5.139 6.367a7.953 7.953 0 0 0 1.192 2.687 21.144 21.144 0 0 1 2.569 13.177l6.728-9.78c1.068-1.552 2.924-3.305 4.536-2.33.54.327.895.912 1.457 1.199 1.341.683 2.768-.623 3.956-1.549 4.094-3.191 9.917-2.355 15.012-1.361 2.405.47 5.047 1.085 6.469 3.082 2.363 3.317-.104 8.11 1.275 11.942a3.532 3.532 0 0 0 1.457-2.325c1.923.059 4.28-.13 5.104-1.869.251-.681.385-1.4.395-2.126.303-2.922 1.731-5.586 2.677-8.367.946-2.78 1.357-6.038-.239-8.503a10.285 10.285 0 0 0-2.092-2.207c-9.059-7.612-20.97-8.867-32.377-8.856ZM372.675 428.887c-5.52-6.31-8.8-15.51-8.95-15.92v-.01s-8.8-5.04-11.22-.2-25.01 16.94-27.43 16.94a.302.302 0 0 1-.06.02c-.96.32-12.98 4.69-16.07 20.96a121.799 121.799 0 0 0-1.34 16.91h65.79c.68-7.13 1.19-13.8 1.39-19.56.29-8.03.01-14.27-1.21-17.49a5.084 5.084 0 0 0-.9-1.65ZM429.246 433.427c-.04-.19-.07-.35-.1-.5a3.735 3.735 0 0 0-.54-1.2.063.063 0 0 1-.01-.03c-4.66-7.22-34.63-17.16-34.63-17.16l-1.12 3.87s.14 3.82.34 9.94c.2 5.73.44 13.47.67 21.97.16 5.55.3 11.43.43 17.27h44.83a261.864 261.864 0 0 0-9.87-34.16Z" fill="#2F2E41"/><path d="m848.686 467.587 3.43-16.76 3.19-1.35.02.01c.29.11 3.76 1.58 3.76 7.15 0 1.12-.171 5.15-.451 10.95h-9.949Z" fill="#575A89"/><path d="M812.658 409.046c15.385 0 27.856-12.471 27.856-27.855s-12.471-27.856-27.856-27.856c-15.384 0-27.855 12.472-27.855 27.856 0 15.384 12.471 27.855 27.855 27.855Z" fill="#FFB8B8"/><path d="m830.068 397.44-2.322 47.586-35.98-20.891 4.642-26.695h33.66Z" fill="#FFB8B8"/><path d="m840.515 447.347-2.36 20.24h-18.89l-20.5-39.39-5.78-11.09-2.77-1.81 3.21-.73 2.53 1.83 28.31 20.51 4.54-13.63.12-.35 1.14-3.43 10.45 27.85Z" fill="#FBFA04"/><path d="M795.828 353.916s3.482-17.41 23.213-13.928l-2.321 1.16s18.57-2.321 16.249 8.125c0 0 15.088 9.285 11.606 19.731a118.096 118.096 0 0 0-4.642 18.57l-3.482-3.482s-3.482-23.213-24.374-20.891c-15.669 1.741-22.052 9.14-23.684 14.472a47.103 47.103 0 0 1-2.868 7.294l-1.304.286s-6.963-25.534 11.607-31.337ZM855.326 449.487l-.02-.01-14.79-13.74v-9.28l-11.42-9-.17 5.47-1.18 37.19-18.99-26.12-12.8-17.6-2.3-3.15.56-2.95-7.09 8.03-25.66 19.25-2.2 1.65a69.913 69.913 0 0 0-6.96 8.12c-.69 1.03-3.83 9.23-7.92 20.24h114.25c.28-5.8.45-9.83.45-10.95 0-5.57-3.47-7.04-3.76-7.15ZM588.488 350.593c-18.876 0-34.177 16.982-34.177 37.93v26.615h8.185l4.739-9.861-1.185 9.861h52.613l4.308-8.965-1.077 8.965h5.924V394.24c0-24.105-17.609-43.647-39.33-43.647Z" fill="#2F2E41"/><path d="M560.905 467.587h-22.23l-.21-18.13c-.01-.19-.01-.37-.01-.56l4.45-5.01.08-.09 16.99 10.76.93 13.03Z" fill="#D0CDE1"/><path d="M585.464 411.419c13.438 0 24.331-10.894 24.331-24.331 0-13.438-10.893-24.332-24.331-24.332-13.438 0-24.331 10.894-24.331 24.332 0 13.437 10.893 24.331 24.331 24.331Z" fill="#FBBEBE"/><path d="M571.515 401.686s7.137 36.983 3.893 40.876c-3.244 3.893 34.388-7.137 34.388-7.137s-12.328-25.304-5.84-39.578l-32.441 5.839Z" fill="#FBBEBE"/><path d="M637.525 426.697h-.01a5.585 5.585 0 0 0-2.79-2.72c-4.77-2.01-8.88-3.55-12.26-4.72a25.928 25.928 0 0 0-18.34.57c-.57.23-1.13.48-1.68.76 0 0-23.79 4.53-26.62 3.96-.21-.04-.43-.07-.64-.09a11.355 11.355 0 0 0-1.29-.11 28.503 28.503 0 0 0-15.8 3.92c-7.81 4.53-19.39 12.56-19.63 20.38l-.22.25.22 18.69h104.42c.21-17.91.33-31.37.33-32.28 0-2.83-5.69-8.61-5.69-8.61Z" fill="#FB5E5E"/><path d="M598.204 361.042a17.924 17.924 0 0 0-14.143-7.218h-.671c-12.937 0-23.425 11.707-23.425 26.149h4.335l.7-5.329 1.026 5.329h25.711l2.154-4.509-.538 4.509h5.058c2.36 11.721-1.031 23.443-10.174 35.165h8.616l4.308-9.017-1.077 9.017h16.425l3.231-20.739c0-15.531-9.024-28.701-21.536-33.357Z" fill="#2F2E41"/><path d="M602.926 363.225c7.07 0 12.801-5.731 12.801-12.801s-5.731-12.801-12.801-12.801-12.801 5.731-12.801 12.801 5.731 12.801 12.801 12.801Z" fill="#2F2E41"/></g><path d="M225.068 319.477a10.285 10.285 0 0 1-15.408 3.364l-30.611 19.971.093-18.993 29.055-16.053a10.34 10.34 0 0 1 16.871 11.711ZM71.457 644.189H84.59l6.248-50.655-19.383.001.002 50.654Z" fill="#FFB6B6"/><path d="m68.107 656.919 42.345-.002v-.535A16.482 16.482 0 0 0 93.97 639.9l-25.864.001v17.018Z" fill="#2F2E41"/><path d="M136.429 644.189h13.132l6.248-50.655-19.382.001.002 50.654Z" fill="#FFB6B6"/><path d="m133.079 656.919 42.346-.002v-.535a16.482 16.482 0 0 0-16.482-16.482h-.001l-25.863.001v17.018Z" fill="#2F2E41"/><path d="m151.587 385.703 13.086 130.581-6.543 112.712h-25.298l-5.114-106.023-19.896-57.975-11.58 89.342v72.743l-28.781 1.332-9.551-178.108s-3.245-49.816 3.23-55.92c6.473-6.104 90.447-8.684 90.447-8.684Z" fill="#434343"/><path d="m40.01 267.876 26.448-9.957 4.655-9.438 33.25.483 7.533 7.568 25.892 8.482 16.463 126.124s-50.674 36.217-95.654 11.194L40.01 267.876Z" fill="#B9B9B9"/><path d="m201.885 331.668-43.52 25.586-36.262-48.506v-30.425a14.256 14.256 0 0 1 15.716-14.186 14.267 14.267 0 0 1 11.773 8.861l18.833 46.792 26.711-7.892 6.749 19.77Z" fill="#B9B9B9"/><path d="M75.422 399.902a10.285 10.285 0 0 0-13.685-7.838L38.54 363.819l-5.617 18.144 22.889 24.04a10.34 10.34 0 0 0 19.61-6.101Z" fill="#FFB6B6"/><path d="m40.823 395.454 14.658-14.659-24.208-43.377 35.11-39.354-2.026-15.877a20.065 20.065 0 0 0-4.232-9.989 20.07 20.07 0 0 0-32.674 1.868L0 335.107l.137.203 40.686 60.144Z" fill="#B9B9B9"/><path d="M63.392 215.713a28.194 28.194 0 0 0 55.869-7.604l-.054-.4a28.19 28.19 0 0 0-11.118-18.247 28.188 28.188 0 0 0-39.147 5.613 28.195 28.195 0 0 0-5.542 20.637l-.008.001Z" fill="#FFB6B6"/><path d="M70.567 230.234c-1.448-2.94-2.935-6.098-2.528-9.351.406-3.252 3.596-6.361 6.728-5.395 1.874.579 3.29 2.428 5.247 2.523 2.694.13 4.239-2.953 5.077-5.517l3.415-10.44a28.253 28.253 0 0 0 23.461 5.302c3.171-.725 6.374-2.139 8.234-4.807 1.86-2.668 1.849-6.807-.703-8.825-1.25-.989-2.915-1.365-4.111-2.421a4.61 4.61 0 0 1-1.137-5.374 4.608 4.608 0 0 1 4.816-2.642l-8.599-1.075 2.562-4.634a8.465 8.465 0 0 1-6.729 1.235c-2.313-.417-4.492-1.369-6.755-2.005a26.006 26.006 0 0 0-28.922 12.145 11.01 11.01 0 0 0-12.002 3.466c-2.302 2.921-2.928 6.82-3.017 10.538a45.72 45.72 0 0 0 4.661 21.18 17.34 17.34 0 0 0 3.915 5.554 7.847 7.847 0 0 0 6.29 2.058" fill="#2F2E41"/><path d="M999.001 296.165c9.039-6.346 9.039-19.669 6.799-30.487-2.25-10.818-5.68-22.62-.58-32.421 7.32-14.086 26.58-14.933 42.38-16.439a148.975 148.975 0 0 0 34.4-7.462c4.46-1.54 8.93-3.338 12.59-6.328 5.26-4.306 8.35-10.657 11.23-16.818 9.6-20.525 18.72-41.269 27.35-62.233" stroke="#fff" stroke-miterlimit="10"/><path d="M1124.38 207.105a24.716 24.716 0 0 1-9.04-6.85 24.719 24.719 0 0 1-5.05-10.171c-.87-3.735-.86-7.622.02-11.354a24.798 24.798 0 0 1 5.09-10.151 24.72 24.72 0 0 1 20.23-8.862c3.83.191 7.56 1.27 10.9 3.151a24.757 24.757 0 0 1 8.35 7.688l-9.27 8.767 11.91-3.704a24.68 24.68 0 0 1-.49 18.868 24.281 24.281 0 0 1-3.61 5.82 24.74 24.74 0 0 1-29.04 6.798ZM1156.6 134.319a24.849 24.849 0 0 0 2.04-12.091 24.787 24.787 0 0 0-4.02-11.585l-9.86 7.33 6.09-11.8a24.767 24.767 0 0 0-13.93-6.472c-5.21-.626-10.48.421-15.05 2.989a24.733 24.733 0 0 0-10.4 11.3 24.734 24.734 0 0 0-1.74 15.263 24.766 24.766 0 0 0 7.59 13.353 24.736 24.736 0 0 0 39.28-8.287ZM1052.78 215.993a24.72 24.72 0 0 1-12.52-12.427 24.796 24.796 0 0 1-1.08-17.614 24.81 24.81 0 0 1 10.92-13.857 24.749 24.749 0 0 1 17.37-3.064l-4.68 9.068 9.98-7.419a24.739 24.739 0 0 1 13.13 13.752 24.772 24.772 0 0 1 1.65 9.522 24.737 24.737 0 0 1-7.67 17.334 24.832 24.832 0 0 1-8.16 5.172 24.757 24.757 0 0 1-9.52 1.652c-3.25-.08-6.45-.8-9.42-2.119ZM1042.22 264.46a24.746 24.746 0 0 1-15.85 4.747 24.757 24.757 0 0 1-15.29-6.3 24.825 24.825 0 0 1-7.91-14.533 24.772 24.772 0 0 1 3.01-16.271 24.75 24.75 0 0 1 12.58-10.739 24.749 24.749 0 0 1 16.54-.408 24.755 24.755 0 0 1 13.09 10.105 24.782 24.782 0 0 1 3.81 16.103l-19.45 4.339 16.97 4.083a24.626 24.626 0 0 1-7.5 8.874Z" stroke="#FEFEFE" stroke-miterlimit="10"/><path d="M999.558 104.504c5.262-4.307 8.352-10.658 11.232-16.819a1434.95 1434.95 0 0 0 27.35-62.232" stroke="#fff" stroke-miterlimit="10"/><path d="M1029.36 108.58a24.668 24.668 0 0 1-9.05-6.85 24.833 24.833 0 0 1-5.05-10.17c-.87-3.736-.86-7.623.03-11.355a24.66 24.66 0 0 1 5.08-10.15 24.774 24.774 0 0 1 9.07-6.816 24.777 24.777 0 0 1 11.16-2.047 24.757 24.757 0 0 1 19.26 10.84l-9.27 8.766 11.91-3.704a24.726 24.726 0 0 1-.49 18.869 24.3 24.3 0 0 1-3.62 5.819 24.73 24.73 0 0 1-29.03 6.798Z" stroke="#FEFEFE" stroke-miterlimit="10"/><path d="M1122.85 210.179a24.679 24.679 0 0 1-9.05-6.85 24.7 24.7 0 0 1-5.04-10.171 24.61 24.61 0 0 1 .02-11.354 24.667 24.667 0 0 1 5.08-10.152 24.73 24.73 0 0 1 9.08-6.815 24.734 24.734 0 0 1 30.41 8.793l-9.27 8.766 11.91-3.703a24.725 24.725 0 0 1-.49 18.868 24.601 24.601 0 0 1-3.61 5.82 24.74 24.74 0 0 1-29.04 6.798ZM1154.55 138.417a24.845 24.845 0 0 0 2.04-12.091 24.788 24.788 0 0 0-4.02-11.584l-9.86 7.329 6.09-11.799a24.733 24.733 0 0 0-28.98-3.483 24.723 24.723 0 0 0-10.4 11.3 24.803 24.803 0 0 0-1.74 15.262 24.759 24.759 0 0 0 21.59 19.658c5.21.564 10.47-.546 15.02-3.168a24.754 24.754 0 0 0 10.26-11.424ZM1050.56 220.007a24.756 24.756 0 0 1-12.52-12.428 24.738 24.738 0 0 1-1.07-17.613 24.726 24.726 0 0 1 10.92-13.857 24.708 24.708 0 0 1 17.36-3.065l-4.67 9.068 9.97-7.418a24.776 24.776 0 0 1 7.96 5.589 24.768 24.768 0 0 1 5.16 8.163 24.745 24.745 0 0 1-.46 18.949 24.758 24.758 0 0 1-13.71 13.073 24.745 24.745 0 0 1-18.94-.461ZM1040.68 267.534a24.718 24.718 0 0 1-31.13-1.553 24.717 24.717 0 0 1-7.91-14.533 24.772 24.772 0 0 1 3.01-16.271 24.75 24.75 0 0 1 12.58-10.739 24.714 24.714 0 0 1 16.53-.408 24.778 24.778 0 0 1 13.1 10.105 24.775 24.775 0 0 1 3.8 16.103l-19.45 4.339 16.97 4.083a24.528 24.528 0 0 1-7.5 8.874ZM1027.82 111.654a24.833 24.833 0 0 1-9.05-6.85 24.812 24.812 0 0 1-5.02-21.525 24.906 24.906 0 0 1 5.08-10.151 24.809 24.809 0 0 1 9.08-6.815 24.727 24.727 0 0 1 22.06 1.105 24.755 24.755 0 0 1 8.35 7.688l-9.27 8.766 11.91-3.704a24.68 24.68 0 0 1-.49 18.869c-.92 2.1-2.14 4.06-3.61 5.819a24.74 24.74 0 0 1-29.04 6.798ZM1059.53 39.893a24.726 24.726 0 0 0 2.03-12.091 24.774 24.774 0 0 0-4.01-11.585l-9.86 7.33 6.08-11.8a24.737 24.737 0 0 0-39.38 7.817 24.805 24.805 0 0 0-1.74 15.263 24.762 24.762 0 0 0 7.59 13.353 24.732 24.732 0 0 0 29.02 3.136 24.772 24.772 0 0 0 10.27-11.423Z" fill="#57CD4D"/><path d="M1061.57 35.794a24.619 24.619 0 0 0 2.04-12.091 24.787 24.787 0 0 0-4.02-11.584l-9.85 7.33 6.08-11.8a24.737 24.737 0 0 0-39.38 7.817 24.805 24.805 0 0 0-1.74 15.262 24.761 24.761 0 0 0 7.59 13.353 24.731 24.731 0 0 0 29.02 3.136 24.75 24.75 0 0 0 10.26-11.423Z" stroke="#FEFEFE" stroke-miterlimit="10"/><path d="M966.78 594.562h-5.482v46.344s35.383 11.461 69.772 0v-46.344h-64.29Z" fill="#FBBC05"/><path d="M995.684 600.044c18.986 0 34.386-2.343 34.386-5.232 0-2.89-15.4-5.233-34.386-5.233-18.991 0-34.386 2.343-34.386 5.233 0 2.889 15.395 5.232 34.386 5.232Z" fill="#4F1F15"/><path d="M1035.65 539.192c-8.67 32.064-38.382 51.923-38.382 51.923s-15.648-32.129-6.974-64.193C998.969 494.858 1028.68 475 1028.68 475s15.65 32.128 6.97 64.192Z" fill="#08AE23"/><path d="M956.741 539.192c8.674 32.064 38.386 51.923 38.386 51.923s15.653-32.129 6.973-64.193C993.426 494.858 963.714 475 963.714 475s-15.648 32.128-6.973 64.192Z" fill="#08AE23"/><path d="M969.488 532.301c23.802 23.17 26.71 58.787 26.71 58.787s-35.685-1.948-59.488-25.118C912.907 542.801 910 507.183 910 507.183s35.685 1.949 59.488 25.118Z" fill="#245015"/><path d="M1022.91 532.301c-23.804 23.17-26.712 58.787-26.712 58.787s35.682-1.948 59.492-25.118c23.8-23.169 26.71-58.787 26.71-58.787s-35.69 1.949-59.49 25.118Z" fill="#245015"/><defs><clipPath id="a"><path fill="#fff" transform="translate(182 10)" d="M0 0h817.215v523.621H0z"/></clipPath></defs></svg>