<svg width="986" height="790" viewBox="0 0 986 790" fill="none" xmlns="http://www.w3.org/2000/svg">
<path d="M986 0.5C986 0.5 987.43 22 986 103C986 242 986 194.5 986 284.5C986 374.5 986 557.5 986 635C940.339 683.477 852.656 568.254 762.698 603.68C672.058 638.484 610.723 708.713 524.173 749.732C436.941 791.373 323.812 803.803 227.72 771.485C130.947 739.167 51.2119 662.101 18.4999 572.605C-14.8936 483.73 -1.94513 381.804 53.9379 309.71C109.821 237.616 207.957 195.355 268.61 148.742C328.582 102.13 353.362 68.4865 393.57 -0.499969C526.463 -0.499924 516.57 -0.499969 610.57 -0.5C704.57 -0.500071 884.5 0.500034 986 0.5Z" fill="url(#paint0_linear_305_542)"/>
<defs>
<linearGradient id="paint0_linear_305_542" x1="955.5" y1="-1.00002" x2="113" y2="626.5" gradientUnits="userSpaceOnUse">
<stop stop-color="#00D695"/>
<stop offset="1" stop-color="#00B0FF"/>
</linearGradient>
</defs>
</svg>
