<svg width="371" height="470" viewBox="0 0 371 470" fill="none" xmlns="http://www.w3.org/2000/svg">
<path d="M226.511 119.546C278.239 147.102 337.897 168.24 360.174 209.007C382.452 249.773 367.726 309.791 339.785 354.332C311.844 398.874 269.081 431.982 238.497 471.616C185.791 471.616 232.881 471.616 169.807 471.616C114.941 471.616 115.805 471.616 69.1471 471.616C28.1057 471.616 45.3863 472.48 2.6168 471.616C2.6168 418.163 2.6168 409.426 2.89838 380.057C2.89838 350.257 2.89849 315.704 2.89789 259.561C2.89789 203.417 0.32757 58.0592 0.32757 17.0299C0.32757 -23.9994 -9.5558 18.3733 79.254 47.0723C130.605 58.3964 174.782 91.9911 226.511 119.546Z" fill="url(#paint0_linear_307_548)"/>
<defs>
<linearGradient id="paint0_linear_307_548" x1="342.782" y1="221.987" x2="116.453" y2="390.055" gradientUnits="userSpaceOnUse">
<stop stop-color="#00B0FF"/>
<stop offset="1" stop-color="#7075FF"/>
</linearGradient>
</defs>
</svg>
